<?xml version="1.0" encoding="UTF-8" standalone="no"?>
<!DOCTYPE svg PUBLIC "-//W3C//DTD SVG 1.1//EN" "http://www.w3.org/Graphics/SVG/1.1/DTD/svg11.dtd">
<svg version="1.1" xmlns="http://www.w3.org/2000/svg" xmlns:xlink="http://www.w3.org/1999/xlink" preserveAspectRatio="xMidYMid meet" viewBox="0 0 640 640" width="640" height="640"><defs><path d="M320 640C143.38 640 0 496.62 0 320C0 143.38 143.38 0 320 0C496.62 0 640 143.38 640 320C640 496.62 496.62 640 320 640Z" id="b4bpwuDSk"></path><path d="M118.93 213.33C102.17 213.33 88.53 200.66 88.53 185.07C88.53 169.47 102.17 156.8 118.93 156.8C135.7 156.8 149.33 169.47 149.33 185.07C149.33 200.66 135.7 213.33 118.93 213.33Z" id="a2BHOYz9gw"></path><path d="M142.93 370.67C132.93 370.67 124.8 362.54 124.8 352.53C124.8 342.53 132.93 334.4 142.93 334.4C152.94 334.4 161.07 342.53 161.07 352.53C161.07 362.54 152.94 370.67 142.93 370.67Z" id="b2tacQeCA4"></path><path d="M572.8 210.13C562.79 210.13 554.67 202.01 554.67 192C554.67 181.99 562.79 173.87 572.8 173.87C582.81 173.87 590.93 181.99 590.93 192C590.93 202.01 582.81 210.13 572.8 210.13Z" id="k2beAzKHH2"></path><path d="M593.07 241.07C586.01 241.07 580.27 234.86 580.27 227.2C580.27 219.54 586.01 213.33 593.07 213.33C600.13 213.33 605.87 219.54 605.87 227.2C605.87 234.86 600.13 241.07 593.07 241.07Z" id="bWAffD1nu"></path><path d="M366.38 438.31C337.07 420.25 328.58 380.76 347.41 350.19C366.27 319.62 405.38 309.48 434.69 327.55C464 345.62 472.49 385.11 453.65 415.68C434.79 446.25 395.69 456.38 366.38 438.31Z" id="a2EDEvWXnM"></path><path d="M234.58 607.57C225.02 601.69 221.14 590.63 225.9 582.91C230.66 575.21 242.28 573.72 251.82 579.61C261.38 585.49 265.26 596.54 260.5 604.27C255.74 611.99 244.12 613.46 234.58 607.57Z" id="a8dBatVpNo"></path></defs><g><g><g><use xlink:href="#b4bpwuDSk" opacity="1" fill="#53391a" fill-opacity="1"></use><g><use xlink:href="#b4bpwuDSk" opacity="1" fill-opacity="0" stroke="#000000" stroke-width="1" stroke-opacity="0"></use></g></g><g><use xlink:href="#a2BHOYz9gw" opacity="1" fill="#bf7b25" fill-opacity="1"></use><g><use xlink:href="#a2BHOYz9gw" opacity="1" fill-opacity="0" stroke="#000000" stroke-width="1" stroke-opacity="0"></use></g></g><g><use xlink:href="#b2tacQeCA4" opacity="1" fill="#bf7b25" fill-opacity="1"></use><g><use xlink:href="#b2tacQeCA4" opacity="1" fill-opacity="0" stroke="#000000" stroke-width="1" stroke-opacity="0"></use></g></g><g><use xlink:href="#k2beAzKHH2" opacity="1" fill="#bf7b25" fill-opacity="1"></use><g><use xlink:href="#k2beAzKHH2" opacity="1" fill-opacity="0" stroke="#000000" stroke-width="1" stroke-opacity="0"></use></g></g><g><use xlink:href="#bWAffD1nu" opacity="1" fill="#bf7b25" fill-opacity="1"></use><g><use xlink:href="#bWAffD1nu" opacity="1" fill-opacity="0" stroke="#000000" stroke-width="1" stroke-opacity="0"></use></g></g><g><use xlink:href="#a2EDEvWXnM" opacity="1" fill="#bf7b25" fill-opacity="1"></use><g><use xlink:href="#a2EDEvWXnM" opacity="1" fill-opacity="0" stroke="#000000" stroke-width="1" stroke-opacity="0"></use></g></g><g><use xlink:href="#a8dBatVpNo" opacity="1" fill="#bf7b25" fill-opacity="1"></use><g><use xlink:href="#a8dBatVpNo" opacity="1" fill-opacity="0" stroke="#000000" stroke-width="1" stroke-opacity="0"></use></g></g></g></g></svg>