<?xml version="1.0" encoding="UTF-8" standalone="no"?>
<!DOCTYPE svg PUBLIC "-//W3C//DTD SVG 1.1//EN" "http://www.w3.org/Graphics/SVG/1.1/DTD/svg11.dtd">
<svg version="1.1" xmlns="http://www.w3.org/2000/svg" xmlns:xlink="http://www.w3.org/1999/xlink" preserveAspectRatio="xMidYMid meet" viewBox="0 0 640 640" width="640" height="640"><defs><path d="M320 631.62C143.39 631.62 0 488.23 0 311.62C0 135.01 143.39 -8.38 320 -8.38C496.61 -8.38 640 135.01 640 311.62C640 488.23 496.61 631.62 320 631.62Z" id="c9MfFiLws"></path><path d="M117.2 181.05C111.04 195.57 96.74 203.42 85.29 198.56C73.83 193.71 69.52 177.98 75.67 163.45C81.82 148.93 96.12 141.08 107.58 145.94C119.04 150.79 123.35 166.52 117.2 181.05Z" id="a6dnjAQNlj"></path><path d="M179.32 509.77C186.53 517.84 186.63 529.53 179.54 535.86C172.45 542.2 160.85 540.79 153.64 532.73C146.43 524.66 146.33 512.97 153.42 506.63C160.5 500.3 172.11 501.71 179.32 509.77Z" id="d3aakl5S3E"></path><path d="M538.43 138.23C576.49 180.82 575.27 244.09 535.71 279.45C496.16 314.81 433.14 308.94 395.08 266.36C357.02 223.78 358.24 160.5 397.8 125.14C437.36 89.79 500.37 95.65 538.43 138.23Z" id="afcmOYiB2"></path><path d="M580.87 277.7C591.4 278.94 598.7 290.56 597.16 303.64C595.63 316.72 585.83 326.34 575.3 325.1C564.76 323.86 557.46 312.24 559 299.16C560.54 286.08 570.34 276.46 580.87 277.7Z" id="guNX0YSsq"></path></defs><g><g><g><use xlink:href="#c9MfFiLws" opacity="1" fill="#e7c276" fill-opacity="1"></use><g><use xlink:href="#c9MfFiLws" opacity="1" fill-opacity="0" stroke="#000000" stroke-width="1" stroke-opacity="0"></use></g><g><filter id="shadow4050019" x="-105" y="-113.38" width="851" height="851" filterUnits="userSpaceOnUse" primitiveUnits="userSpaceOnUse"><feFlood></feFlood><feComposite in2="SourceAlpha" operator="out"></feComposite><feGaussianBlur stdDeviation="5.74"></feGaussianBlur><feOffset dx="1" dy="1" result="afterOffset"></feOffset><feFlood flood-color="#e6ad5c" flood-opacity="0.5"></feFlood><feComposite in2="afterOffset" operator="in"></feComposite><feMorphology operator="dilate" radius="33"></feMorphology><feComposite in2="SourceAlpha" operator="in"></feComposite></filter><path d="M320 631.62C143.39 631.62 0 488.23 0 311.62C0 135.01 143.39 -8.38 320 -8.38C496.61 -8.38 640 135.01 640 311.62C640 488.23 496.61 631.62 320 631.62Z" id="aIfcOeR9z" fill="white" fill-opacity="1" filter="url(#shadow4050019)"></path></g></g><g><use xlink:href="#a6dnjAQNlj" opacity="1" fill="#e0ae65" fill-opacity="1"></use><g><filter id="shadow6867769" x="63.87" y="135.5" width="66.13" height="74.5" filterUnits="userSpaceOnUse" primitiveUnits="userSpaceOnUse"><feFlood></feFlood><feComposite in2="SourceAlpha" operator="out"></feComposite><feGaussianBlur stdDeviation="1"></feGaussianBlur><feOffset dx="1" dy="1" result="afterOffset"></feOffset><feFlood flood-color="#e14646" flood-opacity="0.8"></feFlood><feComposite in2="afterOffset" operator="in"></feComposite><feMorphology operator="dilate" radius="1"></feMorphology><feComposite in2="SourceAlpha" operator="in"></feComposite></filter><path d="M117.2 181.05C111.04 195.57 96.74 203.42 85.29 198.56C73.83 193.71 69.52 177.98 75.67 163.45C81.82 148.93 96.12 141.08 107.58 145.94C119.04 150.79 123.35 166.52 117.2 181.05Z" id="fZTXlar4e" fill="white" fill-opacity="1" filter="url(#shadow6867769)"></path></g></g><g><use xlink:href="#d3aakl5S3E" opacity="1" fill="#e0ae65" fill-opacity="1"></use><g><filter id="shadow13593523" x="139.17" y="493.67" width="55.63" height="56.16" filterUnits="userSpaceOnUse" primitiveUnits="userSpaceOnUse"><feFlood></feFlood><feComposite in2="SourceAlpha" operator="out"></feComposite><feGaussianBlur stdDeviation="1"></feGaussianBlur><feOffset dx="1" dy="1" result="afterOffset"></feOffset><feFlood flood-color="#e14646" flood-opacity="0.8"></feFlood><feComposite in2="afterOffset" operator="in"></feComposite><feMorphology operator="dilate" radius="1"></feMorphology><feComposite in2="SourceAlpha" operator="in"></feComposite></filter><path d="M179.32 509.77C186.53 517.84 186.63 529.53 179.54 535.86C172.45 542.2 160.85 540.79 153.64 532.73C146.43 524.66 146.33 512.97 153.42 506.63C160.5 500.3 172.11 501.71 179.32 509.77Z" id="b148ky6UnG" fill="white" fill-opacity="1" filter="url(#shadow13593523)"></path></g></g><g><use xlink:href="#afcmOYiB2" opacity="1" fill="#e0ae65" fill-opacity="1"></use><g><filter id="shadow9756991" x="358.31" y="93.03" width="217.88" height="219.53" filterUnits="userSpaceOnUse" primitiveUnits="userSpaceOnUse"><feFlood></feFlood><feComposite in2="SourceAlpha" operator="out"></feComposite><feGaussianBlur stdDeviation="1"></feGaussianBlur><feOffset dx="1" dy="1" result="afterOffset"></feOffset><feFlood flood-color="#e14646" flood-opacity="0.8"></feFlood><feComposite in2="afterOffset" operator="in"></feComposite><feMorphology operator="dilate" radius="1"></feMorphology><feComposite in2="SourceAlpha" operator="in"></feComposite></filter><path d="M538.43 138.23C576.49 180.82 575.27 244.09 535.71 279.45C496.16 314.81 433.14 308.94 395.08 266.36C357.02 223.78 358.24 160.5 397.8 125.14C437.36 89.79 500.37 95.65 538.43 138.23Z" id="b6dKa6xZOh" fill="white" fill-opacity="1" filter="url(#shadow9756991)"></path></g></g><g><use xlink:href="#guNX0YSsq" opacity="1" fill="#e0ae65" fill-opacity="1"></use><g><filter id="shadow8240584" x="549.8" y="268.59" width="57.57" height="66.61" filterUnits="userSpaceOnUse" primitiveUnits="userSpaceOnUse"><feFlood></feFlood><feComposite in2="SourceAlpha" operator="out"></feComposite><feGaussianBlur stdDeviation="1"></feGaussianBlur><feOffset dx="1" dy="1" result="afterOffset"></feOffset><feFlood flood-color="#e14646" flood-opacity="0.8"></feFlood><feComposite in2="afterOffset" operator="in"></feComposite><feMorphology operator="dilate" radius="1"></feMorphology><feComposite in2="SourceAlpha" operator="in"></feComposite></filter><path d="M580.87 277.7C591.4 278.94 598.7 290.56 597.16 303.64C595.63 316.72 585.83 326.34 575.3 325.1C564.76 323.86 557.46 312.24 559 299.16C560.54 286.08 570.34 276.46 580.87 277.7Z" id="a2ptcIfa6u" fill="white" fill-opacity="1" filter="url(#shadow8240584)"></path></g></g></g></g></svg>