<?xml version="1.0" encoding="UTF-8" standalone="no"?>
<!DOCTYPE svg PUBLIC "-//W3C//DTD SVG 1.1//EN" "http://www.w3.org/Graphics/SVG/1.1/DTD/svg11.dtd">
<svg version="1.1" xmlns="http://www.w3.org/2000/svg" xmlns:xlink="http://www.w3.org/1999/xlink" preserveAspectRatio="xMidYMid meet" viewBox="0 0 640 640" width="640" height="640"><defs><path d="M0 320C0 143.38 143.38 0 320.02 0C496.64 0 640 143.38 640 320C640 496.6 496.64 640 320.02 640C143.38 640 0 496.6 0 320Z" id="b2iklGqk2E"></path><path d="M0 320C0 143.38 143.38 0 320.02 0C496.64 0 640 143.38 640 320C640 496.6 496.64 640 320.02 640C143.38 640 0 496.6 0 320Z" id="bBlzGOgl"></path><path d="M384.38 244.05C384.38 257.94 373.48 269.21 360.02 269.21C292.05 269.21 112.53 269.21 44.57 269.21C31.1 269.21 20.18 257.94 20.18 244.05C20.2 239.04 20.2 249.09 20.18 244.05C20.18 230.19 31.1 218.92 44.57 218.92C112.53 218.92 292.05 218.92 360.02 218.92C373.48 218.92 384.38 230.19 384.38 244.05C384.38 249.09 384.38 239.04 384.38 244.05Z" id="a4tTcb4a2J"></path><path d="M384.38 244.05C384.38 257.94 373.48 269.21 360.02 269.21C292.05 269.21 112.53 269.21 44.57 269.21C31.1 269.21 20.18 257.94 20.18 244.05C20.2 239.04 20.2 249.09 20.18 244.05C20.18 230.19 31.1 218.92 44.57 218.92C112.53 218.92 292.05 218.92 360.02 218.92C373.48 218.92 384.38 230.19 384.38 244.05C384.38 249.09 384.38 239.04 384.38 244.05Z" id="a1krLznfhl"></path><path d="M566.51 130.45C566.51 139.93 559.06 147.63 549.87 147.63C501.46 147.63 372.86 147.63 324.46 147.63C315.26 147.63 307.82 139.93 307.82 130.45C307.82 127.04 307.82 133.89 307.82 130.45C307.82 120.98 315.26 113.32 324.46 113.32C372.86 113.32 501.46 113.32 549.87 113.32C559.06 113.32 566.51 120.98 566.51 130.45C566.51 133.89 566.51 127.04 566.51 130.45Z" id="aYqjkSQLn"></path><path d="M566.51 130.45C566.51 139.93 559.06 147.63 549.87 147.63C501.46 147.63 372.86 147.63 324.46 147.63C315.26 147.63 307.82 139.93 307.82 130.45C307.82 127.04 307.82 133.89 307.82 130.45C307.82 120.98 315.26 113.32 324.46 113.32C372.86 113.32 501.46 113.32 549.87 113.32C559.06 113.32 566.51 120.98 566.51 130.45C566.51 133.89 566.51 127.04 566.51 130.45Z" id="f2kseaVHVB"></path><path d="M465.09 337.09C465.09 349.1 455.68 358.81 444.03 358.81C385.34 358.81 230.29 358.81 171.61 358.81C159.96 358.81 150.53 349.1 150.53 337.09C150.53 331.35 150.53 335.94 150.53 330.24C150.53 318.25 159.96 308.5 171.61 308.5C230.29 308.5 385.34 308.5 444.03 308.5C455.68 308.5 465.09 318.25 465.09 330.24C465.09 335.94 465.09 331.35 465.09 337.09Z" id="a3M1k3z5m6"></path><path d="M465.09 337.09C465.09 349.1 455.68 358.81 444.03 358.81C385.34 358.81 230.29 358.81 171.61 358.81C159.96 358.81 150.53 349.1 150.53 337.09C150.53 331.35 150.53 335.94 150.53 330.24C150.53 318.25 159.96 308.5 171.61 308.5C230.29 308.5 385.34 308.5 444.03 308.5C455.68 308.5 465.09 318.25 465.09 330.24C465.09 335.94 465.09 331.35 465.09 337.09Z" id="e2ebb0qphV"></path><path d="M307.82 524.07C307.82 529.98 303.17 534.81 297.39 534.81C255.02 534.81 138.37 534.81 96 534.81C90.26 534.81 85.57 529.98 85.57 524.07C85.57 521.92 85.57 526.21 85.57 524.07C85.57 518.12 90.26 513.32 96 513.32C138.37 513.32 255.02 513.32 297.39 513.32C303.17 513.32 307.82 518.12 307.82 524.07C307.82 526.21 307.82 521.92 307.82 524.07Z" id="cVsI8eWUy"></path><path d="M307.82 524.07C307.82 529.98 303.17 534.81 297.39 534.81C255.02 534.81 138.37 534.81 96 534.81C90.26 534.81 85.57 529.98 85.57 524.07C85.57 521.92 85.57 526.21 85.57 524.07C85.57 518.12 90.26 513.32 96 513.32C138.37 513.32 255.02 513.32 297.39 513.32C303.17 513.32 307.82 518.12 307.82 524.07C307.82 526.21 307.82 521.92 307.82 524.07Z" id="e34oZkRHtY"></path><path d="M621.29 412.61C621.29 415.87 618.71 418.52 615.51 418.52C593.32 418.52 532.52 418.52 510.34 418.52C507.16 418.52 504.55 415.87 504.55 412.61C504.55 411.39 504.55 413.78 504.55 412.61C504.55 409.3 507.16 406.66 510.34 406.66C532.52 406.66 593.32 406.66 615.51 406.66C618.71 406.66 621.29 409.3 621.29 412.61C621.29 413.78 621.29 411.39 621.29 412.61Z" id="b6Mniw1JR"></path><path d="M621.29 412.61C621.29 415.87 618.71 418.52 615.51 418.52C593.32 418.52 532.52 418.52 510.34 418.52C507.16 418.52 504.55 415.87 504.55 412.61C504.55 411.39 504.55 413.78 504.55 412.61C504.55 409.3 507.16 406.66 510.34 406.66C532.52 406.66 593.32 406.66 615.51 406.66C618.71 406.66 621.29 409.3 621.29 412.61C621.29 413.78 621.29 411.39 621.29 412.61Z" id="b258kRxPsN"></path></defs><g><g><g><use xlink:href="#b2iklGqk2E" opacity="1" fill="#85d32d" fill-opacity="1"></use><g><use xlink:href="#b2iklGqk2E" opacity="1" fill-opacity="0" stroke="#000000" stroke-width="1" stroke-opacity="0"></use></g></g><g><use xlink:href="#bBlzGOgl" opacity="1" fill="#000000" fill-opacity="0"></use><g><use xlink:href="#bBlzGOgl" opacity="1" fill-opacity="0" stroke="#000000" stroke-width="1" stroke-opacity="0"></use></g><g><filter id="shadow3048224" x="-95" y="-95" width="832" height="832" filterUnits="userSpaceOnUse" primitiveUnits="userSpaceOnUse"><feFlood></feFlood><feComposite in2="SourceAlpha" operator="out"></feComposite><feGaussianBlur stdDeviation="6.24"></feGaussianBlur><feOffset dx="2" dy="2" result="afterOffset"></feOffset><feFlood flood-color="#519319" flood-opacity="0.5"></feFlood><feComposite in2="afterOffset" operator="in"></feComposite><feMorphology operator="dilate" radius="10"></feMorphology><feComposite in2="SourceAlpha" operator="in"></feComposite></filter><path d="M0 320C0 143.38 143.38 0 320.02 0C496.64 0 640 143.38 640 320C640 496.6 496.64 640 320.02 640C143.38 640 0 496.6 0 320Z" id="d1yyKz0fnN" fill="white" fill-opacity="1" filter="url(#shadow3048224)"></path></g></g><g><use xlink:href="#a4tTcb4a2J" opacity="1" fill="#6aab1f" fill-opacity="1"></use><g><use xlink:href="#a4tTcb4a2J" opacity="1" fill-opacity="0" stroke="#000000" stroke-width="1" stroke-opacity="0"></use></g></g><g><g><filter id="shadow14439271" x="11.18" y="209.92" width="383.2" height="69.28" filterUnits="userSpaceOnUse" primitiveUnits="userSpaceOnUse"><feFlood></feFlood><feComposite in2="SourceAlpha" operator="in"></feComposite><feGaussianBlur stdDeviation="1"></feGaussianBlur><feOffset dx="1" dy="1" result="afterOffset"></feOffset><feFlood flood-color="#000000" flood-opacity="0.5"></feFlood><feComposite in2="afterOffset" operator="in"></feComposite><feMorphology operator="dilate" radius="1"></feMorphology><feComposite in2="SourceAlpha" operator="out"></feComposite></filter><path d="M384.38 244.05C384.38 257.94 373.48 269.21 360.02 269.21C292.05 269.21 112.53 269.21 44.57 269.21C31.1 269.21 20.18 257.94 20.18 244.05C20.2 239.04 20.2 249.09 20.18 244.05C20.18 230.19 31.1 218.92 44.57 218.92C112.53 218.92 292.05 218.92 360.02 218.92C373.48 218.92 384.38 230.19 384.38 244.05C384.38 249.09 384.38 239.04 384.38 244.05Z" id="a6WyqeIHQ" fill="white" fill-opacity="1" filter="url(#shadow14439271)"></path></g><use xlink:href="#a1krLznfhl" opacity="1" fill="#000000" fill-opacity="0"></use><g><use xlink:href="#a1krLznfhl" opacity="1" fill-opacity="0" stroke="#000000" stroke-width="1" stroke-opacity="0"></use></g></g><g><use xlink:href="#aYqjkSQLn" opacity="1" fill="#6aab1f" fill-opacity="1"></use><g><use xlink:href="#aYqjkSQLn" opacity="1" fill-opacity="0" stroke="#000000" stroke-width="1" stroke-opacity="0"></use></g></g><g><g><filter id="shadow3239086" x="298.82" y="104.32" width="277.69" height="53.3" filterUnits="userSpaceOnUse" primitiveUnits="userSpaceOnUse"><feFlood></feFlood><feComposite in2="SourceAlpha" operator="in"></feComposite><feGaussianBlur stdDeviation="1"></feGaussianBlur><feOffset dx="1" dy="1" result="afterOffset"></feOffset><feFlood flood-color="#000000" flood-opacity="0.5"></feFlood><feComposite in2="afterOffset" operator="in"></feComposite><feMorphology operator="dilate" radius="1"></feMorphology><feComposite in2="SourceAlpha" operator="out"></feComposite></filter><path d="M566.51 130.45C566.51 139.93 559.06 147.63 549.87 147.63C501.46 147.63 372.86 147.63 324.46 147.63C315.26 147.63 307.82 139.93 307.82 130.45C307.82 127.04 307.82 133.89 307.82 130.45C307.82 120.98 315.26 113.32 324.46 113.32C372.86 113.32 501.46 113.32 549.87 113.32C559.06 113.32 566.51 120.98 566.51 130.45C566.51 133.89 566.51 127.04 566.51 130.45Z" id="a50VC2sJHe" fill="white" fill-opacity="1" filter="url(#shadow3239086)"></path></g><use xlink:href="#f2kseaVHVB" opacity="1" fill="#000000" fill-opacity="0"></use><g><use xlink:href="#f2kseaVHVB" opacity="1" fill-opacity="0" stroke="#000000" stroke-width="1" stroke-opacity="0"></use></g></g><g><use xlink:href="#a3M1k3z5m6" opacity="1" fill="#6aab1f" fill-opacity="1"></use><g><use xlink:href="#a3M1k3z5m6" opacity="1" fill-opacity="0" stroke="#000000" stroke-width="1" stroke-opacity="0"></use></g></g><g><g><filter id="shadow3575931" x="141.53" y="299.5" width="333.56" height="69.3" filterUnits="userSpaceOnUse" primitiveUnits="userSpaceOnUse"><feFlood></feFlood><feComposite in2="SourceAlpha" operator="in"></feComposite><feGaussianBlur stdDeviation="1"></feGaussianBlur><feOffset dx="1" dy="1" result="afterOffset"></feOffset><feFlood flood-color="#000000" flood-opacity="0.5"></feFlood><feComposite in2="afterOffset" operator="in"></feComposite><feMorphology operator="dilate" radius="1"></feMorphology><feComposite in2="SourceAlpha" operator="out"></feComposite></filter><path d="M465.09 337.09C465.09 349.1 455.68 358.81 444.03 358.81C385.34 358.81 230.29 358.81 171.61 358.81C159.96 358.81 150.53 349.1 150.53 337.09C150.53 331.35 150.53 335.94 150.53 330.24C150.53 318.25 159.96 308.5 171.61 308.5C230.29 308.5 385.34 308.5 444.03 308.5C455.68 308.5 465.09 318.25 465.09 330.24C465.09 335.94 465.09 331.35 465.09 337.09Z" id="a1ue5uodlp" fill="white" fill-opacity="1" filter="url(#shadow3575931)"></path></g><use xlink:href="#e2ebb0qphV" opacity="1" fill="#000000" fill-opacity="0"></use><g><use xlink:href="#e2ebb0qphV" opacity="1" fill-opacity="0" stroke="#000000" stroke-width="1" stroke-opacity="0"></use></g></g><g><use xlink:href="#cVsI8eWUy" opacity="1" fill="#6aab1f" fill-opacity="1"></use><g><use xlink:href="#cVsI8eWUy" opacity="1" fill-opacity="0" stroke="#000000" stroke-width="1" stroke-opacity="0"></use></g></g><g><g><filter id="shadow13715338" x="76.57" y="504.32" width="241.25" height="40.48" filterUnits="userSpaceOnUse" primitiveUnits="userSpaceOnUse"><feFlood></feFlood><feComposite in2="SourceAlpha" operator="in"></feComposite><feGaussianBlur stdDeviation="1"></feGaussianBlur><feOffset dx="1" dy="1" result="afterOffset"></feOffset><feFlood flood-color="#000000" flood-opacity="0.5"></feFlood><feComposite in2="afterOffset" operator="in"></feComposite><feMorphology operator="dilate" radius="1"></feMorphology><feComposite in2="SourceAlpha" operator="out"></feComposite></filter><path d="M307.82 524.07C307.82 529.98 303.17 534.81 297.39 534.81C255.02 534.81 138.37 534.81 96 534.81C90.26 534.81 85.57 529.98 85.57 524.07C85.57 521.92 85.57 526.21 85.57 524.07C85.57 518.12 90.26 513.32 96 513.32C138.37 513.32 255.02 513.32 297.39 513.32C303.17 513.32 307.82 518.12 307.82 524.07C307.82 526.21 307.82 521.92 307.82 524.07Z" id="axy1efThb" fill="white" fill-opacity="1" filter="url(#shadow13715338)"></path></g><use xlink:href="#e34oZkRHtY" opacity="1" fill="#000000" fill-opacity="0"></use><g><use xlink:href="#e34oZkRHtY" opacity="1" fill-opacity="0" stroke="#000000" stroke-width="1" stroke-opacity="0"></use></g></g><g><use xlink:href="#b6Mniw1JR" opacity="1" fill="#6aab1f" fill-opacity="1"></use><g><use xlink:href="#b6Mniw1JR" opacity="1" fill-opacity="0" stroke="#000000" stroke-width="1" stroke-opacity="0"></use></g></g><g><g><filter id="shadow941141" x="495.55" y="397.66" width="135.74" height="30.86" filterUnits="userSpaceOnUse" primitiveUnits="userSpaceOnUse"><feFlood></feFlood><feComposite in2="SourceAlpha" operator="in"></feComposite><feGaussianBlur stdDeviation="1"></feGaussianBlur><feOffset dx="1" dy="1" result="afterOffset"></feOffset><feFlood flood-color="#000000" flood-opacity="0.5"></feFlood><feComposite in2="afterOffset" operator="in"></feComposite><feMorphology operator="dilate" radius="1"></feMorphology><feComposite in2="SourceAlpha" operator="out"></feComposite></filter><path d="M621.29 412.61C621.29 415.87 618.71 418.52 615.51 418.52C593.32 418.52 532.52 418.52 510.34 418.52C507.16 418.52 504.55 415.87 504.55 412.61C504.55 411.39 504.55 413.78 504.55 412.61C504.55 409.3 507.16 406.66 510.34 406.66C532.52 406.66 593.32 406.66 615.51 406.66C618.71 406.66 621.29 409.3 621.29 412.61C621.29 413.78 621.29 411.39 621.29 412.61Z" id="elSsIlwjX" fill="white" fill-opacity="1" filter="url(#shadow941141)"></path></g><use xlink:href="#b258kRxPsN" opacity="1" fill="#000000" fill-opacity="0"></use><g><use xlink:href="#b258kRxPsN" opacity="1" fill-opacity="0" stroke="#000000" stroke-width="1" stroke-opacity="0"></use></g></g></g></g></svg>