<?xml version="1.0" encoding="UTF-8" standalone="no"?>
<!DOCTYPE svg PUBLIC "-//W3C//DTD SVG 1.1//EN" "http://www.w3.org/Graphics/SVG/1.1/DTD/svg11.dtd">
<svg version="1.1" xmlns="http://www.w3.org/2000/svg" xmlns:xlink="http://www.w3.org/1999/xlink" preserveAspectRatio="xMidYMid meet" viewBox="0 0 640 640" width="640" height="640"><defs><path d="M320 640C143.39 640 0 496.61 0 320C0 143.39 143.39 0 320 0C496.61 0 640 143.39 640 320C640 496.61 496.61 640 320 640Z" id="k2Q60N9mub"></path><path d="M640 311.04C640 314.14 640 307.94 640 311.04C640 319.62 632.96 326.55 624.26 326.55C499.42 326.55 140.58 326.55 15.74 326.55C7.04 326.55 0 319.62 0 311.04C0 307.94 0 314.14 0 311.04C0 302.46 7.04 295.53 15.74 295.53C140.58 295.53 499.42 295.53 624.26 295.53C632.96 295.53 640 302.46 640 311.04Z" id="e2qIYCt4v5"></path><path d="M632.21 376.7C632.23 379.85 632.21 374.07 632.21 377.22C632.23 385.64 625.32 392.5 616.75 392.5C494.98 392.76 145.1 393.47 23.3 393.73C14.76 393.73 7.79 386.92 7.77 378.5C7.77 375.35 7.79 381.13 7.77 377.98C7.77 369.56 14.68 362.7 23.23 362.7C145.02 362.44 494.9 361.73 616.7 361.47C625.24 361.47 632.21 368.28 632.21 376.7Z" id="a6GKEn0NE9"></path><path d="M610.12 441.6C610.12 444.95 610.12 440.78 610.12 444.13C610.07 451.99 603.58 458.34 595.6 458.32C481.91 457.86 155.34 456.5 41.67 456.01C33.67 455.99 27.23 449.56 27.28 441.7C27.28 438.35 27.25 442.52 27.28 439.17C27.31 431.31 33.83 424.96 41.8 424.99C155.47 425.45 482.04 426.83 595.73 427.29C603.71 427.32 610.15 433.74 610.12 441.6Z" id="i2tE9OTZMF"></path><path d="M614.85 204.16C614.85 205.44 614.85 202.91 614.85 204.16C614.85 207.67 611.94 210.48 608.41 210.46C491.76 209.97 148.19 208.54 31.54 208.05C27.98 208.05 25.12 205.21 25.15 201.7C25.15 200.45 25.15 202.98 25.15 201.7C25.15 198.2 28.06 195.38 31.59 195.4C148.24 195.89 491.81 197.32 608.46 197.81C612.02 197.81 614.88 200.65 614.85 204.16Z" id="asruwtObN"></path></defs><g><g><g><use xlink:href="#k2Q60N9mub" opacity="1" fill="#adb6a5" fill-opacity="1"></use><g><use xlink:href="#k2Q60N9mub" opacity="1" fill-opacity="0" stroke="#000000" stroke-width="1" stroke-opacity="0"></use></g><g><filter id="shadow165432" x="-58" y="-58" width="758" height="758" filterUnits="userSpaceOnUse" primitiveUnits="userSpaceOnUse"><feFlood></feFlood><feComposite in2="SourceAlpha" operator="out"></feComposite><feGaussianBlur stdDeviation="4.8"></feGaussianBlur><feOffset dx="2" dy="2" result="afterOffset"></feOffset><feFlood flood-color="#484242" flood-opacity="0.5"></feFlood><feComposite in2="afterOffset" operator="in"></feComposite><feMorphology operator="dilate" radius="5"></feMorphology><feComposite in2="SourceAlpha" operator="in"></feComposite></filter><path d="M320 640C143.39 640 0 496.61 0 320C0 143.39 143.39 0 320 0C496.61 0 640 143.39 640 320C640 496.61 496.61 640 320 640Z" id="h9LsdEO5P" fill="white" fill-opacity="1" filter="url(#shadow165432)"></path></g></g><g><use xlink:href="#e2qIYCt4v5" opacity="1" fill="#cbd2c5" fill-opacity="1"></use><g><use xlink:href="#e2qIYCt4v5" opacity="1" fill-opacity="0" stroke="#000000" stroke-width="1" stroke-opacity="0"></use></g><g><filter id="shadow15298014" x="-9" y="286.53" width="659" height="50.03" filterUnits="userSpaceOnUse" primitiveUnits="userSpaceOnUse"><feFlood></feFlood><feComposite in2="SourceAlpha" operator="out"></feComposite><feGaussianBlur stdDeviation="1"></feGaussianBlur><feOffset dx="1" dy="1" result="afterOffset"></feOffset><feFlood flood-color="#000000" flood-opacity="0.5"></feFlood><feComposite in2="afterOffset" operator="in"></feComposite><feMorphology operator="dilate" radius="1"></feMorphology><feComposite in2="SourceAlpha" operator="in"></feComposite></filter><path d="M640 311.04C640 314.14 640 307.94 640 311.04C640 319.62 632.96 326.55 624.26 326.55C499.42 326.55 140.58 326.55 15.74 326.55C7.04 326.55 0 319.62 0 311.04C0 307.94 0 314.14 0 311.04C0 302.46 7.04 295.53 15.74 295.53C140.58 295.53 499.42 295.53 624.26 295.53C632.96 295.53 640 302.46 640 311.04Z" id="a1qPhzBnl1" fill="white" fill-opacity="1" filter="url(#shadow15298014)"></path></g></g><g><use xlink:href="#a6GKEn0NE9" opacity="1" fill="#cbd2c5" fill-opacity="1"></use><g><use xlink:href="#a6GKEn0NE9" opacity="1" fill-opacity="0" stroke="#000000" stroke-width="1" stroke-opacity="0"></use></g><g><filter id="shadow14828571" x="-1.23" y="352.47" width="643.45" height="51.26" filterUnits="userSpaceOnUse" primitiveUnits="userSpaceOnUse"><feFlood></feFlood><feComposite in2="SourceAlpha" operator="out"></feComposite><feGaussianBlur stdDeviation="1"></feGaussianBlur><feOffset dx="1" dy="1" result="afterOffset"></feOffset><feFlood flood-color="#000000" flood-opacity="0.5"></feFlood><feComposite in2="afterOffset" operator="in"></feComposite><feMorphology operator="dilate" radius="1"></feMorphology><feComposite in2="SourceAlpha" operator="in"></feComposite></filter><path d="M632.21 376.7C632.23 379.85 632.21 374.07 632.21 377.22C632.23 385.64 625.32 392.5 616.75 392.5C494.98 392.76 145.1 393.47 23.3 393.73C14.76 393.73 7.79 386.92 7.77 378.5C7.77 375.35 7.79 381.13 7.77 377.98C7.77 369.56 14.68 362.7 23.23 362.7C145.02 362.44 494.9 361.73 616.7 361.47C625.24 361.47 632.21 368.28 632.21 376.7Z" id="e8qMSf2Dzz" fill="white" fill-opacity="1" filter="url(#shadow14828571)"></path></g></g><g><use xlink:href="#i2tE9OTZMF" opacity="1" fill="#cbd2c5" fill-opacity="1"></use><g><use xlink:href="#i2tE9OTZMF" opacity="1" fill-opacity="0" stroke="#000000" stroke-width="1" stroke-opacity="0"></use></g><g><filter id="shadow191026" x="18.27" y="415.99" width="601.85" height="52.33" filterUnits="userSpaceOnUse" primitiveUnits="userSpaceOnUse"><feFlood></feFlood><feComposite in2="SourceAlpha" operator="out"></feComposite><feGaussianBlur stdDeviation="1"></feGaussianBlur><feOffset dx="1" dy="1" result="afterOffset"></feOffset><feFlood flood-color="#000000" flood-opacity="0.5"></feFlood><feComposite in2="afterOffset" operator="in"></feComposite><feMorphology operator="dilate" radius="1"></feMorphology><feComposite in2="SourceAlpha" operator="in"></feComposite></filter><path d="M610.12 441.6C610.12 444.95 610.12 440.78 610.12 444.13C610.07 451.99 603.58 458.34 595.6 458.32C481.91 457.86 155.34 456.5 41.67 456.01C33.67 455.99 27.23 449.56 27.28 441.7C27.28 438.35 27.25 442.52 27.28 439.17C27.31 431.31 33.83 424.96 41.8 424.99C155.47 425.45 482.04 426.83 595.73 427.29C603.71 427.32 610.15 433.74 610.12 441.6Z" id="f5lqlJ562J" fill="white" fill-opacity="1" filter="url(#shadow191026)"></path></g></g><g><use xlink:href="#asruwtObN" opacity="1" fill="#cbd2c5" fill-opacity="1"></use><g><use xlink:href="#asruwtObN" opacity="1" fill-opacity="0" stroke="#000000" stroke-width="1" stroke-opacity="0"></use></g><g><filter id="shadow7613508" x="16.15" y="186.4" width="608.7" height="34.05" filterUnits="userSpaceOnUse" primitiveUnits="userSpaceOnUse"><feFlood></feFlood><feComposite in2="SourceAlpha" operator="out"></feComposite><feGaussianBlur stdDeviation="1"></feGaussianBlur><feOffset dx="1" dy="1" result="afterOffset"></feOffset><feFlood flood-color="#000000" flood-opacity="0.5"></feFlood><feComposite in2="afterOffset" operator="in"></feComposite><feMorphology operator="dilate" radius="1"></feMorphology><feComposite in2="SourceAlpha" operator="in"></feComposite></filter><path d="M614.85 204.16C614.85 205.44 614.85 202.91 614.85 204.16C614.85 207.67 611.94 210.48 608.41 210.46C491.76 209.97 148.19 208.54 31.54 208.05C27.98 208.05 25.12 205.21 25.15 201.7C25.15 200.45 25.15 202.98 25.15 201.7C25.15 198.2 28.06 195.38 31.59 195.4C148.24 195.89 491.81 197.32 608.46 197.81C612.02 197.81 614.88 200.65 614.85 204.16Z" id="j2j6I813Os" fill="white" fill-opacity="1" filter="url(#shadow7613508)"></path></g></g></g></g></svg>