<?xml version="1.0" encoding="UTF-8" standalone="no"?>
<!DOCTYPE svg PUBLIC "-//W3C//DTD SVG 1.1//EN" "http://www.w3.org/Graphics/SVG/1.1/DTD/svg11.dtd">
<svg version="1.1" xmlns="http://www.w3.org/2000/svg" xmlns:xlink="http://www.w3.org/1999/xlink" preserveAspectRatio="xMidYMid meet" viewBox="0 0 640 640" width="640" height="640"><defs><path d="M320 450C237.21 450 170 382.79 170 300C170 217.21 237.21 150 320 150C402.79 150 470 217.21 470 300C470 382.79 402.79 450 320 450Z" id="d21mqzu8Pm"></path><path d="M208.36 294.41C202.39 294.41 197.54 287.58 197.54 279.15C197.54 270.74 202.39 263.9 208.36 263.9C214.33 263.9 219.18 270.74 219.18 279.15C219.18 287.58 214.33 294.41 208.36 294.41Z" id="eu4OWo95r"></path><path d="M236.85 203.61C243.69 196.69 253.87 195.96 259.57 201.99C265.26 208.01 264.32 218.51 257.47 225.43C250.63 232.34 240.46 233.08 234.76 227.06C229.07 221.04 230 210.54 236.85 203.61Z" id="adnQ4GEdF"></path><path d="M435.24 304.36C424.76 306.5 413.52 293.96 410.16 276.37C406.79 258.79 412.56 242.76 423.04 240.61C433.51 238.47 444.75 251.01 448.12 268.6C451.49 286.19 445.71 302.21 435.24 304.36Z" id="bB0MpKPuy"></path><path d="M262.07 423.8C252.87 420.38 247.34 412.03 249.74 405.16C252.13 398.3 261.53 395.5 270.72 398.92C279.92 402.34 285.44 410.69 283.06 417.56C280.67 424.42 271.26 427.22 262.07 423.8Z" id="a1hJDQ7WQM"></path><path d="M295.94 428.51C290.67 427.89 286.71 424.48 287.11 420.92C287.51 417.35 292.11 414.97 297.38 415.6C302.65 416.22 306.61 419.63 306.22 423.19C305.82 426.76 301.22 429.14 295.94 428.51Z" id="akmYUsUrD"></path></defs><g><g><g><use xlink:href="#d21mqzu8Pm" opacity="1" fill="#ed7435" fill-opacity="1"></use><g><use xlink:href="#d21mqzu8Pm" opacity="1" fill-opacity="0" stroke="#000000" stroke-width="1" stroke-opacity="0"></use></g></g><g><use xlink:href="#eu4OWo95r" opacity="1" fill="#d3662d" fill-opacity="1"></use><g><use xlink:href="#eu4OWo95r" opacity="1" fill-opacity="0" stroke="#000000" stroke-width="1" stroke-opacity="0"></use></g></g><g><use xlink:href="#adnQ4GEdF" opacity="1" fill="#d3662d" fill-opacity="1"></use><g><use xlink:href="#adnQ4GEdF" opacity="1" fill-opacity="0" stroke="#000000" stroke-width="1" stroke-opacity="0"></use></g></g><g><use xlink:href="#bB0MpKPuy" opacity="1" fill="#d3662d" fill-opacity="1"></use><g><use xlink:href="#bB0MpKPuy" opacity="1" fill-opacity="0" stroke="#000000" stroke-width="1" stroke-opacity="0"></use></g></g><g><use xlink:href="#a1hJDQ7WQM" opacity="1" fill="#d3662d" fill-opacity="1"></use><g><use xlink:href="#a1hJDQ7WQM" opacity="1" fill-opacity="0" stroke="#000000" stroke-width="1" stroke-opacity="0"></use></g></g><g><use xlink:href="#akmYUsUrD" opacity="1" fill="#d3662d" fill-opacity="1"></use><g><use xlink:href="#akmYUsUrD" opacity="1" fill-opacity="0" stroke="#000000" stroke-width="1" stroke-opacity="0"></use></g></g></g></g></svg>