<?xml version="1.0" encoding="UTF-8" standalone="no"?>
<!DOCTYPE svg PUBLIC "-//W3C//DTD SVG 1.1//EN" "http://www.w3.org/Graphics/SVG/1.1/DTD/svg11.dtd">
<svg version="1.1" xmlns="http://www.w3.org/2000/svg" xmlns:xlink="http://www.w3.org/1999/xlink" preserveAspectRatio="xMidYMid meet" viewBox="0 0 640 640" width="640" height="640"><defs><path d="M490 320C490 402.79 422.79 470 340 470C257.21 470 190 402.79 190 320C190 237.21 257.21 170 340 170C422.79 170 490 237.21 490 320Z" id="dSiCk2vwA"></path><path d="M272.91 241.79C265.85 246.5 256.56 244.98 252.17 238.41C247.78 231.83 249.94 222.67 256.99 217.96C264.04 213.25 273.33 214.77 277.73 221.35C282.12 227.92 279.96 237.09 272.91 241.79Z" id="a3akDfaCrN"></path><path d="M258.91 297.26C251.85 301.97 242.56 300.45 238.17 293.88C233.78 287.3 235.94 278.14 242.99 273.43C250.04 268.72 259.33 270.24 263.73 276.82C268.12 283.39 265.96 292.56 258.91 297.26Z" id="d2Kq42v3v5"></path><path d="M352.91 263.26C345.85 267.97 336.56 266.45 332.17 259.88C327.78 253.3 329.94 244.14 336.99 239.43C344.04 234.72 353.33 236.24 357.73 242.82C362.12 249.39 359.96 258.56 352.91 263.26Z" id="a5DAdv5nQJ"></path><path d="M312.11 320.81C307.75 323.72 301.99 322.76 299.26 318.68C296.53 314.59 297.86 308.9 302.21 306C306.57 303.09 312.32 304.04 315.05 308.13C317.78 312.22 316.46 317.9 312.11 320.81Z" id="a1RoG62LEA"></path><path d="M413.11 426.5C408.75 429.41 402.99 428.45 400.26 424.36C397.53 420.27 398.86 414.59 403.21 411.68C407.57 408.77 413.32 409.73 416.05 413.82C418.78 417.91 417.46 423.59 413.11 426.5Z" id="b1TfghAoFf"></path><path d="M448.11 409.5C443.75 412.41 437.99 411.45 435.26 407.36C432.53 403.27 433.86 397.59 438.21 394.68C442.57 391.77 448.32 392.73 451.05 396.82C453.78 400.91 452.46 406.59 448.11 409.5Z" id="d12a3I0dXJ"></path><path d="M245.81 411.59C247.58 414.2 247.12 417.61 244.77 419.2C242.43 420.78 239.1 419.95 237.33 417.34C235.55 414.72 236.02 411.31 238.36 409.73C240.7 408.14 244.04 408.97 245.81 411.59Z" id="b3TSUAiIfi"></path><path d="M302.35 445.9C300.69 449.52 295.71 450.78 291.24 448.72C286.78 446.67 284.5 442.06 286.17 438.45C287.83 434.84 292.81 433.57 297.28 435.63C301.74 437.69 304.02 442.29 302.35 445.9Z" id="bGnlrBJRn"></path></defs><g><g><g><use xlink:href="#dSiCk2vwA" opacity="1" fill="#a544e3" fill-opacity="1"></use></g><g><use xlink:href="#a3akDfaCrN" opacity="1" fill="#c28ae6" fill-opacity="1"></use></g><g><use xlink:href="#d2Kq42v3v5" opacity="1" fill="#c28ae6" fill-opacity="1"></use></g><g><use xlink:href="#a5DAdv5nQJ" opacity="1" fill="#c28ae6" fill-opacity="1"></use></g><g><use xlink:href="#a1RoG62LEA" opacity="1" fill="#c28ae6" fill-opacity="1"></use></g><g><use xlink:href="#b1TfghAoFf" opacity="1" fill="#c28ae6" fill-opacity="1"></use></g><g><use xlink:href="#d12a3I0dXJ" opacity="1" fill="#c28ae6" fill-opacity="1"></use></g><g><use xlink:href="#b3TSUAiIfi" opacity="1" fill="#c28ae6" fill-opacity="1"></use></g><g><use xlink:href="#bGnlrBJRn" opacity="1" fill="#c28ae6" fill-opacity="1"></use></g></g></g></svg>