<?xml version="1.0" encoding="UTF-8" standalone="no"?>
<!DOCTYPE svg PUBLIC "-//W3C//DTD SVG 1.1//EN" "http://www.w3.org/Graphics/SVG/1.1/DTD/svg11.dtd">
<svg version="1.1" xmlns="http://www.w3.org/2000/svg" xmlns:xlink="http://www.w3.org/1999/xlink" preserveAspectRatio="xMidYMid meet" viewBox="0 0 640 640" width="640" height="640"><defs><path d="M490 320C490 402.79 422.79 470 340 470C257.21 470 190 402.79 190 320C190 237.21 257.21 170 340 170C422.79 170 490 237.21 490 320Z" id="c3ecsJqGxN"></path><path d="M255.6 351.14L263.05 357.67L252.35 360.5L241.65 363.33L244.9 353.97L248.15 344.61L255.6 351.14Z" id="e5ltDPqmYX"></path><path d="M270.36 368.64L262.93 371.47L265.14 362.65L267.35 353.83L272.57 359.82L277.79 365.82L270.36 368.64Z" id="a5MfxHq09"></path><path d="M244.56 375L241 367.89L250 369.2L259 370.51L253.56 376.31L248.12 382.11L244.56 375Z" id="i8b3erV5Gh"></path><path d="M226.83 365.29L233.02 358.03L236.18 367.18L239.35 376.33L230 374.45L220.65 372.56L226.83 365.29Z" id="c6sCAzGZzJ"></path><path d="M229.52 380.5L239.05 381L233.7 389.07L228.36 397.14L224.18 388.57L220 380L229.52 380.5Z" id="c1x7lkikdH"></path><path d="M211.75 384.6L214.6 379.21L217.85 384.51L221.1 389.8L215 389.9L208.9 390L211.75 384.6Z" id="b16rYwBHxu"></path><path d="M278.18 347.28L276.74 357.08L268.56 349.63L260.37 342.18L270 339.83L279.63 337.47L278.18 347.28Z" id="c7pDmh4jh"></path><path d="M287.24 356.01L280.82 359.32L282.12 350.91L283.41 342.51L288.53 347.6L293.65 352.69L287.24 356.01Z" id="b83TbF0e8"></path><path d="M305.35 346.37L301.72 355.68L295.86 349.52L290 343.35L299.49 340.2L308.97 337.05L305.35 346.37Z" id="a2r7EF9jHy"></path><path d="M313.46 347.7L316.19 351.85L311.49 352.26L306.79 352.67L308.76 348.11L310.73 343.55L313.46 347.7Z" id="d6eE0fz1j"></path><path d="M436.11 221.21L437.83 211.45L445.8 219.14L453.76 226.82L444.08 228.89L434.39 230.97L436.11 221.21Z" id="c2KXYaOqW"></path><path d="M450 231.07L457.04 230L454.89 236.24L452.74 242.48L447.85 237.31L442.96 232.13L450 231.07Z" id="g4XrRdq7U"></path><path d="M441.81 249.48L431.83 250L435.04 242.13L438.25 234.25L445.02 241.61L451.79 248.96L441.81 249.48Z" id="c23S4Ge2Rt"></path><path d="M431.87 242.61L428.3 251.95L422.4 245.82L416.5 239.7L425.97 236.48L435.43 233.27L431.87 242.61Z" id="gdlZN9WCX"></path><path d="M421.97 249.59L424.7 253.74L420 254.15L415.3 254.56L417.27 250L419.24 245.44L421.97 249.59Z" id="b2Neyae8cw"></path><path d="M424.58 265.26L418.04 257.81L429.02 256.4L440 255L435.55 263.85L431.11 272.71L424.58 265.26Z" id="eHyfBMFYY"></path><path d="M413.63 266.79L415.76 260L420.43 264.67L425.09 269.34L418.3 271.46L411.5 273.59L413.63 266.79Z" id="a3A1lX45bS"></path><path d="M228.89 239.82L218.99 239.65L225.33 230.58L231.67 221.51L235.24 230.75L238.8 240L228.89 239.82Z" id="a13viBdYQY"></path><path d="M239.27 230L237.8 224L243.9 225.92L250 227.84L245.37 231.92L240.73 236L239.27 230Z" id="b5wuEcbimz"></path><path d="M376.89 419.82L366.99 419.65L373.33 410.58L379.67 401.51L383.24 410.75L386.8 420L376.89 419.82Z" id="aIKrGGS63"></path><path d="M394.52 414.93L390.1 420.43L387.7 413.14L385.29 405.86L392.11 407.64L398.93 409.43L394.52 414.93Z" id="b1TgS7EmmA"></path></defs><g><g><g><use xlink:href="#c3ecsJqGxN" opacity="1" fill="#13b077" fill-opacity="1"></use></g><g><g><filter id="shadow15450338" x="233.65" y="336.61" width="38.4" height="35.72" filterUnits="userSpaceOnUse" primitiveUnits="userSpaceOnUse"><feFlood></feFlood><feComposite in2="SourceAlpha" operator="in"></feComposite><feGaussianBlur stdDeviation="1"></feGaussianBlur><feOffset dx="1" dy="1" result="afterOffset"></feOffset><feFlood flood-color="#000000" flood-opacity="0.5"></feFlood><feComposite in2="afterOffset" operator="in"></feComposite><feMorphology operator="dilate" radius="0"></feMorphology><feComposite in2="SourceAlpha" operator="out"></feComposite></filter><path d="M255.6 351.14L263.05 357.67L252.35 360.5L241.65 363.33L244.9 353.97L248.15 344.61L255.6 351.14Z" id="a3A2UCzcWs" fill="white" fill-opacity="1" filter="url(#shadow15450338)"></path></g><use xlink:href="#e5ltDPqmYX" opacity="1" fill="#246661" fill-opacity="1"></use></g><g><g><filter id="shadow2394815" x="254.93" y="345.83" width="31.86" height="34.64" filterUnits="userSpaceOnUse" primitiveUnits="userSpaceOnUse"><feFlood></feFlood><feComposite in2="SourceAlpha" operator="in"></feComposite><feGaussianBlur stdDeviation="1"></feGaussianBlur><feOffset dx="1" dy="1" result="afterOffset"></feOffset><feFlood flood-color="#000000" flood-opacity="0.5"></feFlood><feComposite in2="afterOffset" operator="in"></feComposite><feMorphology operator="dilate" radius="0"></feMorphology><feComposite in2="SourceAlpha" operator="out"></feComposite></filter><path d="M270.36 368.64L262.93 371.47L265.14 362.65L267.35 353.83L272.57 359.82L277.79 365.82L270.36 368.64Z" id="g2syu5bVyY" fill="white" fill-opacity="1" filter="url(#shadow2394815)"></path></g><use xlink:href="#a5MfxHq09" opacity="1" fill="#246661" fill-opacity="1"></use></g><g><g><filter id="shadow95316" x="233" y="359.89" width="35" height="31.21" filterUnits="userSpaceOnUse" primitiveUnits="userSpaceOnUse"><feFlood></feFlood><feComposite in2="SourceAlpha" operator="in"></feComposite><feGaussianBlur stdDeviation="1"></feGaussianBlur><feOffset dx="1" dy="1" result="afterOffset"></feOffset><feFlood flood-color="#000000" flood-opacity="0.5"></feFlood><feComposite in2="afterOffset" operator="in"></feComposite><feMorphology operator="dilate" radius="0"></feMorphology><feComposite in2="SourceAlpha" operator="out"></feComposite></filter><path d="M244.56 375L241 367.89L250 369.2L259 370.51L253.56 376.31L248.12 382.11L244.56 375Z" id="bdSg3SVZ" fill="white" fill-opacity="1" filter="url(#shadow95316)"></path></g><use xlink:href="#i8b3erV5Gh" opacity="1" fill="#246661" fill-opacity="1"></use></g><g><g><filter id="shadow984146" x="212.65" y="350.03" width="35.7" height="35.3" filterUnits="userSpaceOnUse" primitiveUnits="userSpaceOnUse"><feFlood></feFlood><feComposite in2="SourceAlpha" operator="in"></feComposite><feGaussianBlur stdDeviation="1"></feGaussianBlur><feOffset dx="1" dy="1" result="afterOffset"></feOffset><feFlood flood-color="#000000" flood-opacity="0.5"></feFlood><feComposite in2="afterOffset" operator="in"></feComposite><feMorphology operator="dilate" radius="0"></feMorphology><feComposite in2="SourceAlpha" operator="out"></feComposite></filter><path d="M226.83 365.29L233.02 358.03L236.18 367.18L239.35 376.33L230 374.45L220.65 372.56L226.83 365.29Z" id="c20nfc6TIi" fill="white" fill-opacity="1" filter="url(#shadow984146)"></path></g><use xlink:href="#c6sCAzGZzJ" opacity="1" fill="#246661" fill-opacity="1"></use></g><g><g><filter id="shadow15952855" x="212" y="372" width="36.05" height="34.14" filterUnits="userSpaceOnUse" primitiveUnits="userSpaceOnUse"><feFlood></feFlood><feComposite in2="SourceAlpha" operator="in"></feComposite><feGaussianBlur stdDeviation="1"></feGaussianBlur><feOffset dx="1" dy="1" result="afterOffset"></feOffset><feFlood flood-color="#000000" flood-opacity="0.5"></feFlood><feComposite in2="afterOffset" operator="in"></feComposite><feMorphology operator="dilate" radius="0"></feMorphology><feComposite in2="SourceAlpha" operator="out"></feComposite></filter><path d="M229.52 380.5L239.05 381L233.7 389.07L228.36 397.14L224.18 388.57L220 380L229.52 380.5Z" id="e2WN5v9k6i" fill="white" fill-opacity="1" filter="url(#shadow15952855)"></path></g><use xlink:href="#c1x7lkikdH" opacity="1" fill="#246661" fill-opacity="1"></use></g><g><g><filter id="shadow7247501" x="200.9" y="371.21" width="29.21" height="27.79" filterUnits="userSpaceOnUse" primitiveUnits="userSpaceOnUse"><feFlood></feFlood><feComposite in2="SourceAlpha" operator="in"></feComposite><feGaussianBlur stdDeviation="1"></feGaussianBlur><feOffset dx="1" dy="1" result="afterOffset"></feOffset><feFlood flood-color="#000000" flood-opacity="0.5"></feFlood><feComposite in2="afterOffset" operator="in"></feComposite><feMorphology operator="dilate" radius="0"></feMorphology><feComposite in2="SourceAlpha" operator="out"></feComposite></filter><path d="M211.75 384.6L214.6 379.21L217.85 384.51L221.1 389.8L215 389.9L208.9 390L211.75 384.6Z" id="b6FL3e3kmB" fill="white" fill-opacity="1" filter="url(#shadow7247501)"></path></g><use xlink:href="#b16rYwBHxu" opacity="1" fill="#246661" fill-opacity="1"></use></g><g><g><filter id="shadow2141068" x="252.37" y="329.47" width="36.25" height="36.61" filterUnits="userSpaceOnUse" primitiveUnits="userSpaceOnUse"><feFlood></feFlood><feComposite in2="SourceAlpha" operator="in"></feComposite><feGaussianBlur stdDeviation="1"></feGaussianBlur><feOffset dx="1" dy="1" result="afterOffset"></feOffset><feFlood flood-color="#000000" flood-opacity="0.5"></feFlood><feComposite in2="afterOffset" operator="in"></feComposite><feMorphology operator="dilate" radius="0"></feMorphology><feComposite in2="SourceAlpha" operator="out"></feComposite></filter><path d="M278.18 347.28L276.74 357.08L268.56 349.63L260.37 342.18L270 339.83L279.63 337.47L278.18 347.28Z" id="b2zTXdFiWp" fill="white" fill-opacity="1" filter="url(#shadow2141068)"></path></g><use xlink:href="#c7pDmh4jh" opacity="1" fill="#246661" fill-opacity="1"></use></g><g><g><filter id="shadow3842818" x="272.82" y="334.51" width="29.83" height="33.81" filterUnits="userSpaceOnUse" primitiveUnits="userSpaceOnUse"><feFlood></feFlood><feComposite in2="SourceAlpha" operator="in"></feComposite><feGaussianBlur stdDeviation="1"></feGaussianBlur><feOffset dx="1" dy="1" result="afterOffset"></feOffset><feFlood flood-color="#000000" flood-opacity="0.5"></feFlood><feComposite in2="afterOffset" operator="in"></feComposite><feMorphology operator="dilate" radius="0"></feMorphology><feComposite in2="SourceAlpha" operator="out"></feComposite></filter><path d="M287.24 356.01L280.82 359.32L282.12 350.91L283.41 342.51L288.53 347.6L293.65 352.69L287.24 356.01Z" id="a58pVQsbeF" fill="white" fill-opacity="1" filter="url(#shadow3842818)"></path></g><use xlink:href="#b83TbF0e8" opacity="1" fill="#246661" fill-opacity="1"></use></g><g><g><filter id="shadow10708072" x="282" y="329.05" width="35.97" height="35.63" filterUnits="userSpaceOnUse" primitiveUnits="userSpaceOnUse"><feFlood></feFlood><feComposite in2="SourceAlpha" operator="in"></feComposite><feGaussianBlur stdDeviation="1"></feGaussianBlur><feOffset dx="1" dy="1" result="afterOffset"></feOffset><feFlood flood-color="#000000" flood-opacity="0.5"></feFlood><feComposite in2="afterOffset" operator="in"></feComposite><feMorphology operator="dilate" radius="0"></feMorphology><feComposite in2="SourceAlpha" operator="out"></feComposite></filter><path d="M305.35 346.37L301.72 355.68L295.86 349.52L290 343.35L299.49 340.2L308.97 337.05L305.35 346.37Z" id="a21VzYogta" fill="white" fill-opacity="1" filter="url(#shadow10708072)"></path></g><use xlink:href="#a2r7EF9jHy" opacity="1" fill="#246661" fill-opacity="1"></use></g><g><g><filter id="shadow11664896" x="298.79" y="335.55" width="26.39" height="26.12" filterUnits="userSpaceOnUse" primitiveUnits="userSpaceOnUse"><feFlood></feFlood><feComposite in2="SourceAlpha" operator="in"></feComposite><feGaussianBlur stdDeviation="1"></feGaussianBlur><feOffset dx="1" dy="1" result="afterOffset"></feOffset><feFlood flood-color="#000000" flood-opacity="0.5"></feFlood><feComposite in2="afterOffset" operator="in"></feComposite><feMorphology operator="dilate" radius="0"></feMorphology><feComposite in2="SourceAlpha" operator="out"></feComposite></filter><path d="M313.46 347.7L316.19 351.85L311.49 352.26L306.79 352.67L308.76 348.11L310.73 343.55L313.46 347.7Z" id="a5LPe0ez1O" fill="white" fill-opacity="1" filter="url(#shadow11664896)"></path></g><use xlink:href="#d6eE0fz1j" opacity="1" fill="#246661" fill-opacity="1"></use></g><g><g><filter id="shadow6977701" x="426.39" y="203.45" width="36.38" height="36.52" filterUnits="userSpaceOnUse" primitiveUnits="userSpaceOnUse"><feFlood></feFlood><feComposite in2="SourceAlpha" operator="in"></feComposite><feGaussianBlur stdDeviation="1"></feGaussianBlur><feOffset dx="1" dy="1" result="afterOffset"></feOffset><feFlood flood-color="#000000" flood-opacity="0.5"></feFlood><feComposite in2="afterOffset" operator="in"></feComposite><feMorphology operator="dilate" radius="0"></feMorphology><feComposite in2="SourceAlpha" operator="out"></feComposite></filter><path d="M436.11 221.21L437.83 211.45L445.8 219.14L453.76 226.82L444.08 228.89L434.39 230.97L436.11 221.21Z" id="b8izqyhEs" fill="white" fill-opacity="1" filter="url(#shadow6977701)"></path></g><use xlink:href="#c2KXYaOqW" opacity="1" fill="#246661" fill-opacity="1"></use></g><g><g><filter id="shadow11260145" x="434.96" y="222" width="31.08" height="29.48" filterUnits="userSpaceOnUse" primitiveUnits="userSpaceOnUse"><feFlood></feFlood><feComposite in2="SourceAlpha" operator="in"></feComposite><feGaussianBlur stdDeviation="1"></feGaussianBlur><feOffset dx="1" dy="1" result="afterOffset"></feOffset><feFlood flood-color="#000000" flood-opacity="0.5"></feFlood><feComposite in2="afterOffset" operator="in"></feComposite><feMorphology operator="dilate" radius="0"></feMorphology><feComposite in2="SourceAlpha" operator="out"></feComposite></filter><path d="M450 231.07L457.04 230L454.89 236.24L452.74 242.48L447.85 237.31L442.96 232.13L450 231.07Z" id="ce2akDrv3" fill="white" fill-opacity="1" filter="url(#shadow11260145)"></path></g><use xlink:href="#g4XrRdq7U" opacity="1" fill="#246661" fill-opacity="1"></use></g><g><g><filter id="shadow7746139" x="423.83" y="226.25" width="36.97" height="32.75" filterUnits="userSpaceOnUse" primitiveUnits="userSpaceOnUse"><feFlood></feFlood><feComposite in2="SourceAlpha" operator="in"></feComposite><feGaussianBlur stdDeviation="1"></feGaussianBlur><feOffset dx="1" dy="1" result="afterOffset"></feOffset><feFlood flood-color="#000000" flood-opacity="0.5"></feFlood><feComposite in2="afterOffset" operator="in"></feComposite><feMorphology operator="dilate" radius="0"></feMorphology><feComposite in2="SourceAlpha" operator="out"></feComposite></filter><path d="M441.81 249.48L431.83 250L435.04 242.13L438.25 234.25L445.02 241.61L451.79 248.96L441.81 249.48Z" id="d4yv7OZBaa" fill="white" fill-opacity="1" filter="url(#shadow7746139)"></path></g><use xlink:href="#c23S4Ge2Rt" opacity="1" fill="#246661" fill-opacity="1"></use></g><g><g><filter id="shadow11433817" x="408.5" y="225.27" width="35.93" height="35.68" filterUnits="userSpaceOnUse" primitiveUnits="userSpaceOnUse"><feFlood></feFlood><feComposite in2="SourceAlpha" operator="in"></feComposite><feGaussianBlur stdDeviation="1"></feGaussianBlur><feOffset dx="1" dy="1" result="afterOffset"></feOffset><feFlood flood-color="#000000" flood-opacity="0.5"></feFlood><feComposite in2="afterOffset" operator="in"></feComposite><feMorphology operator="dilate" radius="0"></feMorphology><feComposite in2="SourceAlpha" operator="out"></feComposite></filter><path d="M431.87 242.61L428.3 251.95L422.4 245.82L416.5 239.7L425.97 236.48L435.43 233.27L431.87 242.61Z" id="h23EOJTxSK" fill="white" fill-opacity="1" filter="url(#shadow11433817)"></path></g><use xlink:href="#gdlZN9WCX" opacity="1" fill="#246661" fill-opacity="1"></use></g><g><g><filter id="shadow10112948" x="407.3" y="237.44" width="26.39" height="26.12" filterUnits="userSpaceOnUse" primitiveUnits="userSpaceOnUse"><feFlood></feFlood><feComposite in2="SourceAlpha" operator="in"></feComposite><feGaussianBlur stdDeviation="1"></feGaussianBlur><feOffset dx="1" dy="1" result="afterOffset"></feOffset><feFlood flood-color="#000000" flood-opacity="0.5"></feFlood><feComposite in2="afterOffset" operator="in"></feComposite><feMorphology operator="dilate" radius="0"></feMorphology><feComposite in2="SourceAlpha" operator="out"></feComposite></filter><path d="M421.97 249.59L424.7 253.74L420 254.15L415.3 254.56L417.27 250L419.24 245.44L421.97 249.59Z" id="b58XhRbQ2m" fill="white" fill-opacity="1" filter="url(#shadow10112948)"></path></g><use xlink:href="#b2Neyae8cw" opacity="1" fill="#246661" fill-opacity="1"></use></g><g><g><filter id="shadow10539067" x="410.04" y="247" width="38.96" height="34.71" filterUnits="userSpaceOnUse" primitiveUnits="userSpaceOnUse"><feFlood></feFlood><feComposite in2="SourceAlpha" operator="in"></feComposite><feGaussianBlur stdDeviation="1"></feGaussianBlur><feOffset dx="1" dy="1" result="afterOffset"></feOffset><feFlood flood-color="#000000" flood-opacity="0.5"></feFlood><feComposite in2="afterOffset" operator="in"></feComposite><feMorphology operator="dilate" radius="0"></feMorphology><feComposite in2="SourceAlpha" operator="out"></feComposite></filter><path d="M424.58 265.26L418.04 257.81L429.02 256.4L440 255L435.55 263.85L431.11 272.71L424.58 265.26Z" id="iv0Je7v3M" fill="white" fill-opacity="1" filter="url(#shadow10539067)"></path></g><use xlink:href="#eHyfBMFYY" opacity="1" fill="#246661" fill-opacity="1"></use></g><g><g><filter id="shadow1920176" x="403.5" y="252" width="30.59" height="30.59" filterUnits="userSpaceOnUse" primitiveUnits="userSpaceOnUse"><feFlood></feFlood><feComposite in2="SourceAlpha" operator="in"></feComposite><feGaussianBlur stdDeviation="1"></feGaussianBlur><feOffset dx="1" dy="1" result="afterOffset"></feOffset><feFlood flood-color="#000000" flood-opacity="0.5"></feFlood><feComposite in2="afterOffset" operator="in"></feComposite><feMorphology operator="dilate" radius="0"></feMorphology><feComposite in2="SourceAlpha" operator="out"></feComposite></filter><path d="M413.63 266.79L415.76 260L420.43 264.67L425.09 269.34L418.3 271.46L411.5 273.59L413.63 266.79Z" id="c1cOO8pK9k" fill="white" fill-opacity="1" filter="url(#shadow1920176)"></path></g><use xlink:href="#a3A1lX45bS" opacity="1" fill="#246661" fill-opacity="1"></use></g><g><g><filter id="shadow16403017" x="210.99" y="213.51" width="36.81" height="35.49" filterUnits="userSpaceOnUse" primitiveUnits="userSpaceOnUse"><feFlood></feFlood><feComposite in2="SourceAlpha" operator="in"></feComposite><feGaussianBlur stdDeviation="1"></feGaussianBlur><feOffset dx="1" dy="1" result="afterOffset"></feOffset><feFlood flood-color="#000000" flood-opacity="0.5"></feFlood><feComposite in2="afterOffset" operator="in"></feComposite><feMorphology operator="dilate" radius="0"></feMorphology><feComposite in2="SourceAlpha" operator="out"></feComposite></filter><path d="M228.89 239.82L218.99 239.65L225.33 230.58L231.67 221.51L235.24 230.75L238.8 240L228.89 239.82Z" id="b2HN77GvPI" fill="white" fill-opacity="1" filter="url(#shadow16403017)"></path></g><use xlink:href="#a13viBdYQY" opacity="1" fill="#31938c" fill-opacity="1"></use></g><g><g><filter id="shadow11125939" x="229.8" y="216" width="29.2" height="28.99" filterUnits="userSpaceOnUse" primitiveUnits="userSpaceOnUse"><feFlood></feFlood><feComposite in2="SourceAlpha" operator="in"></feComposite><feGaussianBlur stdDeviation="1"></feGaussianBlur><feOffset dx="1" dy="1" result="afterOffset"></feOffset><feFlood flood-color="#000000" flood-opacity="0.5"></feFlood><feComposite in2="afterOffset" operator="in"></feComposite><feMorphology operator="dilate" radius="0"></feMorphology><feComposite in2="SourceAlpha" operator="out"></feComposite></filter><path d="M239.27 230L237.8 224L243.9 225.92L250 227.84L245.37 231.92L240.73 236L239.27 230Z" id="a1zUWrJW7P" fill="white" fill-opacity="1" filter="url(#shadow11125939)"></path></g><use xlink:href="#b5wuEcbimz" opacity="1" fill="#31938c" fill-opacity="1"></use></g><g><g><filter id="shadow14165490" x="358.99" y="393.51" width="36.81" height="35.49" filterUnits="userSpaceOnUse" primitiveUnits="userSpaceOnUse"><feFlood></feFlood><feComposite in2="SourceAlpha" operator="in"></feComposite><feGaussianBlur stdDeviation="1"></feGaussianBlur><feOffset dx="1" dy="1" result="afterOffset"></feOffset><feFlood flood-color="#000000" flood-opacity="0.5"></feFlood><feComposite in2="afterOffset" operator="in"></feComposite><feMorphology operator="dilate" radius="0"></feMorphology><feComposite in2="SourceAlpha" operator="out"></feComposite></filter><path d="M376.89 419.82L366.99 419.65L373.33 410.58L379.67 401.51L383.24 410.75L386.8 420L376.89 419.82Z" id="ecQ2eJSaq" fill="white" fill-opacity="1" filter="url(#shadow14165490)"></path></g><use xlink:href="#aIKrGGS63" opacity="1" fill="#31938c" fill-opacity="1"></use></g><g><g><filter id="shadow3213899" x="377.29" y="397.86" width="30.64" height="31.58" filterUnits="userSpaceOnUse" primitiveUnits="userSpaceOnUse"><feFlood></feFlood><feComposite in2="SourceAlpha" operator="in"></feComposite><feGaussianBlur stdDeviation="1"></feGaussianBlur><feOffset dx="1" dy="1" result="afterOffset"></feOffset><feFlood flood-color="#000000" flood-opacity="0.5"></feFlood><feComposite in2="afterOffset" operator="in"></feComposite><feMorphology operator="dilate" radius="0"></feMorphology><feComposite in2="SourceAlpha" operator="out"></feComposite></filter><path d="M394.52 414.93L390.1 420.43L387.7 413.14L385.29 405.86L392.11 407.64L398.93 409.43L394.52 414.93Z" id="d5qbqddyE1" fill="white" fill-opacity="1" filter="url(#shadow3213899)"></path></g><use xlink:href="#b1TgS7EmmA" opacity="1" fill="#31938c" fill-opacity="1"></use></g></g></g></svg>