<?xml version="1.0" encoding="UTF-8" standalone="no"?>
<!DOCTYPE svg PUBLIC "-//W3C//DTD SVG 1.1//EN" "http://www.w3.org/Graphics/SVG/1.1/DTD/svg11.dtd">
<svg version="1.1" xmlns="http://www.w3.org/2000/svg" xmlns:xlink="http://www.w3.org/1999/xlink" preserveAspectRatio="xMidYMid meet" viewBox="0 0 640 640" width="640" height="640"><defs><path d="M486.84 300C486.84 382.79 419.63 450 336.84 450C254.05 450 186.84 382.79 186.84 300C186.84 217.21 254.05 150 336.84 150C419.63 150 486.84 217.21 486.84 300Z" id="crYW6Urzf"></path></defs><g><g><g><use xlink:href="#crYW6Urzf" opacity="1" fill="#f0b30b" fill-opacity="1"></use><g><filter id="shadow2949531" x="167.84" y="131" width="349" height="349" filterUnits="userSpaceOnUse" primitiveUnits="userSpaceOnUse"><feFlood></feFlood><feComposite in2="SourceAlpha" operator="out"></feComposite><feGaussianBlur stdDeviation="1"></feGaussianBlur><feOffset dx="-11" dy="-11" result="afterOffset"></feOffset><feFlood flood-color="#ffde00" flood-opacity="0.8"></feFlood><feComposite in2="afterOffset" operator="in"></feComposite><feMorphology operator="dilate" radius="1"></feMorphology><feComposite in2="SourceAlpha" operator="in"></feComposite></filter><path d="M486.84 300C486.84 382.79 419.63 450 336.84 450C254.05 450 186.84 382.79 186.84 300C186.84 217.21 254.05 150 336.84 150C419.63 150 486.84 217.21 486.84 300Z" id="b2hHIf8DWp" fill="white" fill-opacity="1" filter="url(#shadow2949531)"></path></g><g><filter id="shadow10367864" x="167.84" y="131" width="349" height="349" filterUnits="userSpaceOnUse" primitiveUnits="userSpaceOnUse"><feFlood></feFlood><feComposite in2="SourceAlpha" operator="out"></feComposite><feGaussianBlur stdDeviation="1"></feGaussianBlur><feOffset dx="11" dy="11" result="afterOffset"></feOffset><feFlood flood-color="#ffde00" flood-opacity="0.8"></feFlood><feComposite in2="afterOffset" operator="in"></feComposite><feMorphology operator="dilate" radius="1"></feMorphology><feComposite in2="SourceAlpha" operator="in"></feComposite></filter><path d="M486.84 300C486.84 382.79 419.63 450 336.84 450C254.05 450 186.84 382.79 186.84 300C186.84 217.21 254.05 150 336.84 150C419.63 150 486.84 217.21 486.84 300Z" id="fyPqZ51sC" fill="white" fill-opacity="1" filter="url(#shadow10367864)"></path></g></g></g></g></svg>