<?xml version="1.0" encoding="UTF-8" standalone="no"?>
<!DOCTYPE svg PUBLIC "-//W3C//DTD SVG 1.1//EN" "http://www.w3.org/Graphics/SVG/1.1/DTD/svg11.dtd">
<svg version="1.1" xmlns="http://www.w3.org/2000/svg" xmlns:xlink="http://www.w3.org/1999/xlink" preserveAspectRatio="xMidYMid meet" viewBox="0 0 640 640" width="640" height="640"><defs><path d="M470 320C470 402.79 402.79 470 320 470C237.21 470 170 402.79 170 320C170 237.21 237.21 170 320 170C402.79 170 470 237.21 470 320Z" id="f4oel7o1Um"></path><path d="M451.83 249.33L440.28 255L432.88 257.67L424.56 260L413.01 262L402.84 264.33L389.43 267L379.26 268.33L368.17 269.33L356.15 269.33L337.66 270.67L324.26 270.67L307.62 270.67L296.06 270.67L280.81 270.67L263.71 270.67L244.29 269.33L226.73 267L204.54 264.33L184.67 257.67" id="d30beXqglZ"></path><path d="M467.58 332L453.5 340L436.91 346.33L421.82 349.67L405.73 352.33L386.12 357.33L365.51 359.17L339.36 360L309.19 360L284.05 360L267.96 360L252.87 359.17L237.79 357.33L226.72 356L212.14 354L196.55 351.33L180.96 347.67L172.42 341" id="aczTebdE8"></path><path d="M462.33 275.33L449.85 282.86L441.86 286.4L432.87 289.5L420.38 292.16L409.39 295.26L394.91 298.8L383.92 300.57L371.94 301.9L358.95 301.9L338.98 303.67L324.49 303.67L306.51 303.67L294.03 303.67L277.55 303.67L259.07 303.67L238.09 301.9L219.11 298.8L195.14 295.26L173.67 286.4" id="b2wrl20fHM"></path></defs><g><g><g><use xlink:href="#f4oel7o1Um" opacity="1" fill="#e7c276" fill-opacity="1"></use><g><filter id="shadow6683493" x="112" y="112" width="417" height="417" filterUnits="userSpaceOnUse" primitiveUnits="userSpaceOnUse"><feFlood></feFlood><feComposite in2="SourceAlpha" operator="out"></feComposite><feGaussianBlur stdDeviation="4.9"></feGaussianBlur><feOffset dx="1" dy="1" result="afterOffset"></feOffset><feFlood flood-color="#ffbfa2" flood-opacity="0.8"></feFlood><feComposite in2="afterOffset" operator="in"></feComposite><feMorphology operator="dilate" radius="4"></feMorphology><feComposite in2="SourceAlpha" operator="in"></feComposite></filter><path d="M470 320C470 402.79 402.79 470 320 470C237.21 470 170 402.79 170 320C170 237.21 237.21 170 320 170C402.79 170 470 237.21 470 320Z" id="aG0i901r" fill="white" fill-opacity="1" filter="url(#shadow6683493)"></path></g></g><g><g><use xlink:href="#d30beXqglZ" opacity="1" fill-opacity="0" stroke="#c89494" stroke-width="2" stroke-opacity="1"></use></g></g><g><g><use xlink:href="#aczTebdE8" opacity="1" fill-opacity="0" stroke="#c89494" stroke-width="2" stroke-opacity="1"></use></g></g><g><g><use xlink:href="#b2wrl20fHM" opacity="1" fill-opacity="0" stroke="#c89494" stroke-width="2" stroke-opacity="1"></use></g></g></g></g></svg>